<?xml version="1.0" encoding="UTF-8"?>
<svg width="18px" height="14px" viewBox="0 0 18 14" version="1.1" xmlns="http://www.w3.org/2000/svg" xmlns:xlink="http://www.w3.org/1999/xlink">
    <!-- Generator: Sketch 52.2 (67145) - http://www.bohemiancoding.com/sketch -->
    <title>Arrow Left</title>
    <desc>Created with Sketch.</desc>
    <g id="Welcome" stroke="none" stroke-width="1" fill="none" fill-rule="evenodd">
        <g id="Pregame" transform="translate(-27.000000, -51.000000)" fill="#FFFFFF">
            <g id="Arrow-Left" transform="translate(27.000000, 51.000000)">
                <path d="M7.987,12.354 C8.381,12.732 8.387,13.34 7.994,13.718 C7.603,14.093 6.975,14.098 6.575,13.714 L0.306,7.701 C-0.101,7.31 -0.101,6.688 0.306,6.297 L6.575,0.285 C6.967,-0.092 7.6,-0.096 7.993,0.281 C8.384,0.656 8.385,1.262 7.986,1.645 L3.405,6.04 L16.997,6.04 C17.551,6.04 18,6.466 18,6.999 C18,7.529 17.547,7.959 16.997,7.959 L3.405,7.959 L7.987,12.354 Z" id="path-1_30_"></path>
            </g>
        </g>
    </g>
</svg>