<?xml version="1.0" encoding="UTF-8"?>
<svg width="29px" height="22px" viewBox="0 0 29 22" version="1.1" xmlns="http://www.w3.org/2000/svg" xmlns:xlink="http://www.w3.org/1999/xlink">
    <!-- Generator: Sketch 52.2 (67145) - http://www.bohemiancoding.com/sketch -->
    <title>Group</title>
    <desc>Created with Sketch.</desc>
    <g id="Welcome" stroke="none" stroke-width="1" fill="none" fill-rule="evenodd">
        <g id="Dashboard" transform="translate(-256.000000, -511.000000)" fill="#FF7D75">
            <g id="Menu-List" transform="translate(30.000000, 365.000000)">
                <g id="Group" transform="translate(226.000000, 146.000000)">
                    <path d="M11.3142857,14.6661429 L11.3142857,12.8338571 C11.7385714,12.6295714 12.9517143,11.2247143 13.079,10.1278571 C13.1544286,9.86857143 13.2125714,8.93985714 13.2125714,8.73085714 C13.2125714,7.58528571 13.1952857,5.21871429 13.9322857,3.366 C13.6745714,2.12142857 13.0035714,1.07328571 11.561,0.935 C11.176,0.314285714 10.1875714,0 8.90214286,0 C3.76357143,0.0864285714 3.23714286,3.54985714 4.26957143,7.53028571 C4.07,7.64185714 3.74,7.997 3.82171429,8.62714286 C3.97571429,9.80257143 4.50057143,10.1011429 4.83371429,10.1262857 C4.96257143,11.2247143 6.17571429,12.6295714 6.6,12.8338571 L6.6,14.6677143 C5.65714286,17.4161429 0,14.6661429 0,22 L11.3142857,22 C11.3142857,18.7471429 13.1905714,17.3454286 14.7541429,16.5408571 C13.2864286,16.0395714 11.7637143,15.9782857 11.3142857,14.6661429 Z" id="Path"></path>
                    <path d="M22.6285714,15.8525714 L22.6285714,14.6708571 C26.059,14.6708571 26.8557143,13.3508571 26.8557143,13.3508571 C24.9354286,11.8187143 28.2857143,0.916142857 20.8591429,0.916142857 C19.8,0.916142857 18.9797143,1.83228571 18.9797143,1.83228571 C12.9061429,1.83228571 16.28,11.8721429 14.4948571,13.3147143 C14.4948571,13.3147143 15.4424286,14.6818571 18.8571429,14.6818571 L18.8571429,15.851 C17.9142857,18.3338571 13.2,17.4161429 13.2,22 L28.2857143,22 C28.2857143,17.4161429 23.5714286,18.3338571 22.6285714,15.8525714 Z" id="Path"></path>
                </g>
            </g>
        </g>
    </g>
</svg>