<?xml version="1.0" encoding="UTF-8"?>
<svg width="18px" height="18px" viewBox="0 0 18 18" version="1.1" xmlns="http://www.w3.org/2000/svg" xmlns:xlink="http://www.w3.org/1999/xlink">
    <!-- Generator: Sketch 52.2 (67145) - http://www.bohemiancoding.com/sketch -->
    <title>Level</title>
    <desc>Created with Sketch.</desc>
    <g id="Welcome" stroke="none" stroke-width="1" fill="none" fill-rule="evenodd">
        <g id="Dashboard" transform="translate(-93.000000, -515.000000)" fill="#FF7D75" fill-rule="nonzero">
            <g id="Menu-List" transform="translate(30.000000, 365.000000)">
                <g id="Level" transform="translate(63.000000, 150.000000)">
                    <path d="M17,0 L14.8,0 C14.248,0 14,0.448 14,1 L14,18 L18,18 L18,1 C18,0.448 17.552,0 17,0 Z M10,6 L7.8,6 C7.248,6 7,6.448 7,7 L7,18 L11,18 L11,7 C11,6.448 10.552,6 10,6 Z M3,12 L0.8,12 C0.248,12 0,12.448 0,13 L0,18 L4,18 L4,13 C4,12.448 3.552,12 3,12 Z" id="path-1_33_"></path>
                </g>
            </g>
        </g>
    </g>
</svg>