<?xml version="1.0" encoding="UTF-8"?>
<svg width="26px" height="26px" viewBox="0 0 26 26" version="1.1" xmlns="http://www.w3.org/2000/svg" xmlns:xlink="http://www.w3.org/1999/xlink">
    <!-- Generator: Sketch 52.2 (67145) - http://www.bohemiancoding.com/sketch -->
    <title>Notifications</title>
    <desc>Created with Sketch.</desc>
    <defs>
        <path d="M25.2047744,18.7037037 L25.2047744,20.3333333 L0.777777778,20.3333333 L0.777777778,18.7037037 L2.05147117,17.7585185 C3.39495598,16.5037037 3.4647474,13.602963 4.12776588,10.5555556 C5.47125069,4.41185185 11.2464906,2.40740741 11.2464906,2.40740741 C11.2464906,1.51111111 12.0316441,0.777777778 12.9912761,0.777777778 C13.9509081,0.777777778 14.7360615,1.51111111 14.7360615,2.40740741 C14.7360615,2.40740741 20.6508843,4.41185185 21.9943691,10.5555556 C22.6573876,13.6192593 22.727179,16.52 24.0706638,17.7585185 L25.2222222,18.7037037 L25.2047744,18.7037037 Z M12.9912761,25.2222222 C14.9279879,25.2222222 16.480847,23.7718519 16.480847,21.962963 L9.50170513,21.962963 C9.50170513,23.7718519 11.0545642,25.2222222 12.9912761,25.2222222 Z" id="path-1"></path>
    </defs>
    <g id="Welcome" stroke="none" stroke-width="1" fill="none" fill-rule="evenodd">
        <g id="Dashboard" transform="translate(-93.000000, -624.000000)">
            <g id="Menu-List" transform="translate(30.000000, 365.000000)">
                <g id="Notifications" transform="translate(0.000000, 231.000000)">
                    <g id="Icons/home" transform="translate(63.000000, 28.000000)">
                        <mask id="mask-2" fill="white">
                            <use xlink:href="#path-1"></use>
                        </mask>
                        <use id="Notifications" fill="#FF7D75" fill-rule="nonzero" xlink:href="#path-1"></use>
                    </g>
                </g>
            </g>
        </g>
    </g>
</svg>