<?xml version="1.0" encoding="UTF-8"?>
<svg width="26px" height="26px" viewBox="0 0 26 26" version="1.1" xmlns="http://www.w3.org/2000/svg" xmlns:xlink="http://www.w3.org/1999/xlink">
    <!-- Generator: Sketch 52.2 (67145) - http://www.bohemiancoding.com/sketch -->
    <title>Settings</title>
    <desc>Created with Sketch.</desc>
    <defs>
        <path d="M24.2444444,10.8488889 L22.6604444,10.5555556 C22.0956047,10.4178722 21.6299067,10.0197773 21.4060256,9.48323472 C21.1821445,8.94669219 21.2267671,8.33565775 21.5262222,7.83733333 L22.4355556,6.64444444 C22.7938833,6.14133991 22.7315985,5.45205498 22.2888889,5.02133333 L20.9688889,3.71111111 C20.5395441,3.27383378 19.8567152,3.21175842 19.3555556,3.56444444 L18.0844444,4.47377778 C17.5852752,4.76555928 16.9798926,4.81240436 16.4417778,4.60088889 C15.9438563,4.34289497 15.5806556,3.88355291 15.4444444,3.33955556 L15.1511111,1.75555556 C15.0245575,1.19073636 14.5272039,0.786383846 13.9484444,0.777777778 L12.0613333,0.777777778 C11.4789024,0.781876147 10.9762844,1.18721324 10.8488889,1.75555556 L10.5555556,3.33955556 C10.4141354,3.89254974 10.022583,4.34777652 9.49695622,4.57030463 C8.97132947,4.79283274 8.37193812,4.7571296 7.87644444,4.47377778 L6.64444444,3.56444444 C6.1432848,3.21175842 5.46045591,3.27383378 5.03111111,3.71111111 L3.71111111,5.02133333 C3.26840151,5.45205498 3.20611673,6.14133991 3.56444444,6.64444444 L4.47377778,7.91555556 C4.74154332,8.4079255 4.76870026,8.99590373 4.54746005,9.51085938 C4.32621985,10.025815 3.88102469,10.4108568 3.33955556,10.5555556 L1.75555556,10.8488889 C1.19073636,10.9754425 0.786383846,11.4727961 0.777777778,12.0515556 L0.777777778,13.9386667 C0.781876147,14.5210976 1.18721324,15.0237156 1.75555556,15.1511111 L3.33955556,15.4444444 C3.90439527,15.5821278 4.37009335,15.9802227 4.59397441,16.5167653 C4.81785547,17.0533078 4.77323294,17.6643422 4.47377778,18.1626667 L3.56444444,19.3555556 C3.20611673,19.8586601 3.26840151,20.547945 3.71111111,20.9786667 L5.03111111,22.2888889 C5.46045591,22.7261662 6.1432848,22.7882416 6.64444444,22.4355556 L7.91555556,21.5262222 C8.4079255,21.2584567 8.99590373,21.2312997 9.51085938,21.4525399 C10.025815,21.6737802 10.4108568,22.1189753 10.5555556,22.6604444 L10.8488889,24.2444444 C10.9754425,24.8092636 11.4727961,25.2136162 12.0515556,25.2222222 L13.9386667,25.2222222 C14.5174261,25.2136162 15.0147797,24.8092636 15.1413333,24.2444444 L15.4444444,22.6604444 C15.5821278,22.0956047 15.9802227,21.6299067 16.5167653,21.4060256 C17.0533078,21.1821445 17.6643422,21.2267671 18.1626667,21.5262222 L19.4337778,22.4355556 C19.9184061,22.74516 20.551653,22.6846587 20.9688889,22.2888889 L22.2888889,20.9786667 C22.7315985,20.547945 22.7938833,19.8586601 22.4355556,19.3555556 L21.5262222,18.0844444 C21.2584567,17.5920745 21.2312997,17.0040963 21.4525399,16.4891406 C21.6737802,15.974185 22.1189753,15.5891432 22.6604444,15.4444444 L24.2444444,15.1511111 C24.8092636,15.0245575 25.2136162,14.5272039 25.2222222,13.9484444 L25.2222222,12.0613333 C25.2181239,11.4789024 24.8127868,10.9762844 24.2444444,10.8488889 Z M17.4,13 C17.4,15.4300529 15.4300529,17.4 13,17.4 C10.5699471,17.4 8.6,15.4300529 8.6,13 C8.6,10.5699471 10.5699471,8.6 13,8.6 C15.4300529,8.6 17.4,10.5699471 17.4,13 Z" id="path-1"></path>
    </defs>
    <g id="Welcome" stroke="none" stroke-width="1" fill="none" fill-rule="evenodd">
        <g id="Dashboard" transform="translate(-258.000000, -624.000000)">
            <g id="Menu-List" transform="translate(30.000000, 365.000000)">
                <g id="Settings" transform="translate(165.000000, 231.000000)">
                    <g id="Icons/home" transform="translate(63.000000, 28.000000)">
                        <mask id="mask-2" fill="white">
                            <use xlink:href="#path-1"></use>
                        </mask>
                        <use id="Settings" fill="#FF7D75" fill-rule="nonzero" xlink:href="#path-1"></use>
                    </g>
                </g>
            </g>
        </g>
    </g>
</svg>