<?xml version="1.0" encoding="UTF-8"?>
<svg width="22px" height="22px" viewBox="0 0 22 22" version="1.1" xmlns="http://www.w3.org/2000/svg" xmlns:xlink="http://www.w3.org/1999/xlink">
    <!-- Generator: Sketch 52.2 (67145) - http://www.bohemiancoding.com/sketch -->
    <title>Star</title>
    <desc>Created with Sketch.</desc>
    <g id="Welcome" stroke="none" stroke-width="1" fill="none" fill-rule="evenodd">
        <g id="Dashboard" transform="translate(-260.000000, -396.000000)" fill="#FF7D75">
            <g id="Menu-List" transform="translate(30.000000, 365.000000)">
                <g id="Star" transform="translate(230.000000, 31.000000)">
                    <path d="M21.5036268,10.0319619 C21.9546251,9.57363033 22.1135134,8.90141066 21.9191808,8.27685747 C21.7248482,7.65230429 21.2176279,7.20619487 20.5955192,7.11208411 L15.1529843,6.28708725 C15.0466513,6.27119842 14.9537628,6.20153202 14.9060963,6.10008796 L12.4726611,0.954551932 C12.1927733,0.365443057 11.629331,0 10.9998889,0 C10.3704469,0 9.80700455,0.365443057 9.52956116,0.954551932 L7.09490373,6.10008796 C7.04723725,6.20153202 6.95434871,6.27119842 6.84801578,6.28708725 L1.40548088,7.11330633 C0.783372135,7.20741709 0.276151838,7.6535265 0.081819242,8.27807969 C-0.112513354,8.90263287 0.0463749321,9.57485254 0.49737322,10.0331841 L4.43535827,14.0383912 C4.51235798,14.1166131 4.54780229,14.2302793 4.52946903,14.3415011 L3.59936145,19.9979241 C3.49302852,20.6444772 3.74358312,21.2861414 4.25202563,21.6723622 C4.76046815,22.0585829 5.42291008,22.1086939 5.97901908,21.8031395 L10.8471117,19.132594 C10.9424447,19.0800387 11.0573331,19.0800387 11.1526661,19.132594 L16.0207587,21.8031395 C16.2627578,21.9339167 16.5243124,21.9999165 16.7858669,21.9999165 C17.1244212,21.9999165 17.4605311,21.8886947 17.7489744,21.67114 C18.2574169,21.2849192 18.5079715,20.643255 18.4016386,19.9967019 L17.471531,14.3402789 C17.4531977,14.2290571 17.4886421,14.1153909 17.5656418,14.0371689 L21.5036268,10.0319619 Z" id="Path"></path>
                </g>
            </g>
        </g>
    </g>
</svg>